<?xml version="1.0" standalone="no"?>
<!DOCTYPE svg PUBLIC "-//W3C//DTD SVG 20010904//EN"
 "http://www.w3.org/TR/2001/REC-SVG-20010904/DTD/svg10.dtd">
<svg version="1.0" xmlns="http://www.w3.org/2000/svg"
 width="1274.000000pt" height="1274.000000pt" viewBox="0 0 1274.000000 1274.000000"
 preserveAspectRatio="xMidYMid meet">
<metadata>
Created by potrace 1.11, written by Peter Selinger 2001-2013
</metadata>
<g transform="translate(0.000000,1274.000000) scale(0.100000,-0.100000)"
fill="#000000" stroke="none">
<path d="M6318 10269 c17 -30 224 -402 460 -828 l430 -774 -73 -96 c-301 -397
-501 -912 -584 -1501 -31 -223 -41 -383 -41 -655 0 -432 45 -745 160 -1100
137 -425 321 -769 573 -1073 229 -276 540 -516 899 -693 762 -377 1742 -396
2551 -50 648 278 1072 683 1392 1331 294 593 410 1374 319 2145 -103 882 -491
1631 -1079 2088 -452 351 -943 545 -1529 607 -147 15 -541 13 -698 -4 -268
-30 -542 -94 -753 -177 -44 -17 -98 -38 -120 -46 l-40 -16 -935 442 c-514 244
-941 445 -948 448 -8 3 0 -18 16 -48z m1557 -1017 l840 -398 80 28 c44 15 150
42 235 60 154 32 157 33 435 33 304 0 341 -4 562 -60 251 -64 484 -176 694
-332 83 -61 265 -239 339 -328 282 -344 454 -809 522 -1415 19 -169 16 -627
-5 -820 -39 -353 -125 -671 -251 -926 -107 -218 -204 -358 -355 -518 -403
-423 -892 -626 -1507 -626 -600 0 -1083 201 -1486 618 -393 407 -587 903 -629
1606 -19 323 11 776 72 1092 24 127 90 361 130 460 63 161 164 350 232 437 16
21 27 45 25 55 -4 13 -710 1295 -785 1425 -2 4 -1 7 4 6 4 0 386 -179 848
-397z"/>
<path d="M2890 9669 c-574 -57 -1052 -228 -1480 -532 -205 -145 -381 -318
-534 -524 -416 -559 -626 -1260 -626 -2093 0 -508 74 -961 231 -1418 168 -486
395 -863 697 -1155 444 -431 977 -640 1747 -688 394 -24 753 12 1081 111 l141
42 962 -482 c530 -265 965 -480 967 -478 1 2 -199 387 -446 856 l-448 853 67
94 c187 257 333 565 446 943 21 68 36 124 34 126 -7 5 -763 195 -788 198 -23
3 -26 -3 -52 -107 -62 -251 -175 -516 -298 -702 -34 -50 -61 -95 -61 -100 1
-4 155 -300 344 -658 188 -357 342 -651 341 -653 -2 -2 -337 164 -745 368
l-742 371 -97 -25 c-198 -51 -280 -60 -531 -61 -261 0 -347 11 -566 71 -200
54 -458 178 -620 296 -117 87 -302 282 -387 410 -271 407 -419 969 -434 1650
-11 497 44 892 183 1306 129 387 324 671 620 904 270 212 604 340 991 379 164
17 544 6 663 -20 350 -73 565 -185 792 -412 88 -87 137 -147 198 -240 107
-163 203 -365 260 -545 l23 -70 396 94 c218 52 398 96 399 98 6 5 -49 177 -90
279 -172 431 -436 786 -776 1042 -361 272 -809 435 -1302 473 -148 11 -440 11
-560 -1z"/>
</g>
</svg>
